<?xml version="1.0" encoding="UTF-8"?>
<svg id="SVGDoc" width="29" height="29" xmlns="http://www.w3.org/2000/svg" version="1.1" xmlns:xlink="http://www.w3.org/1999/xlink" xmlns:avocode="https://avocode.com/" viewBox="0 0 29 29"><defs></defs><desc>Generated with Avocode.</desc><g><g><title>pencil</title><path d="M4.25672,18.30535l14.88565,-14.88554l6.36954,6.36946l-14.8858,14.88554zM19.82787,7.00983l-0.69791,-0.69775l-11.98113,11.9809l0.69791,0.69816zM21.22383,8.40594l-0.69791,-0.69816l-11.98113,11.98111l0.69806,0.69796zM22.6198,9.80165l-0.69791,-0.69775l-11.98113,11.9809l0.69791,0.69816zM21.99373,0.6077c0.78231,-0.78236 2.04547,-0.78784 2.82104,-0.01197l3.51113,3.51108c0.77572,0.77566 0.77021,2.03868 -0.0121,2.82104l-2.16924,2.16914l-6.32006,-6.32015zM3.76638,19.13479l6.0307,6.03042l-5.28423,1.87677l-2.62282,-2.62322zM3.51163,27.36884l-3.06598,1.11714l1.11732,-3.06593z" fill="#ffffff" fill-opacity="1"></path></g></g></svg>